<svg xmlns="http://www.w3.org/2000/svg" viewBox="0 0 512 512" role="img" aria-label="Voz Segura">
    <title>Voz Segura</title>

    <defs>
        <style>
            .stroke { stroke-linecap: round; stroke-linejoin: round; }
        </style>
    </defs>

    <path
            d="M256 40
       C256 40 140 78 92 96
       V244
       C92 340 160 420 256 468
       C352 420 420 340 420 244
       V96
       C372 78 256 40 256 40Z"
            fill="#0f172a"
    />

    <!-- BORDE INTERNO (contraste) -->
    <path
            d="M256 70
       C256 70 156 102 118 116
       V244
       C118 325 174 392 256 433
       C338 392 394 325 394 244
       V116
       C356 102 256 70 256 70Z"
            fill="#3b82f6"
    />

    <!-- BURBUJA (voz / denuncia) -->
    <path
            d="M168 170
       a44 44 0 0 1 44-44
       h132
       a44 44 0 0 1 44 44
       v86
       a44 44 0 0 1-44 44
       h-68
       l-36 34
       c-8 7-20 1-20-9
       v-25
       h-28
       a44 44 0 0 1-44-44Z"
            fill="#ffffff"
    />

    <path
            class="stroke"
            d="M168 170
       a44 44 0 0 1 44-44
       h132
       a44 44 0 0 1 44 44
       v86
       a44 44 0 0 1-44 44
       h-68
       l-36 34
       c-8 7-20 1-20-9
       v-25
       h-28
       a44 44 0 0 1-44-44Z"
            fill="none"
            stroke="#0f172a"
            stroke-width="16"
    />

    <!-- CHECK (seguro / verificado) -->
    <path
            class="stroke"
            d="M214 245
       l28 28
       l62-62"
            fill="none"
            stroke="#22c3b6"
            stroke-width="20"
    />

    <circle cx="216" cy="208" r="10" fill="#3b82f6"/>
    <circle cx="256" cy="208" r="10" fill="#3b82f6"/>
    <circle cx="296" cy="208" r="10" fill="#3b82f6"/>
</svg>
