<?xml version="1.0" standalone="no"?>
<!DOCTYPE svg PUBLIC "-//W3C//DTD SVG 20010904//EN"
 "http://www.w3.org/TR/2001/REC-SVG-20010904/DTD/svg10.dtd">
<svg version="1.0" xmlns="http://www.w3.org/2000/svg"
 width="1024.000000pt" height="1024.000000pt" viewBox="0 0 1024.000000 1024.000000"
 preserveAspectRatio="xMidYMid meet">

<g transform="translate(0.000000,1024.000000) scale(0.100000,-0.100000)"
fill="#000000" stroke="none">
<path d="M5076 8294 c-53 -29 -319 -125 -483 -175 -420 -126 -930 -232 -1488
-308 -121 -17 -233 -32 -248 -33 l-29 -3 2 -206 1 -206 -36 -39 c-62 -67 -123
-158 -161 -238 -68 -144 -70 -300 -5 -581 17 -71 46 -215 65 -320 94 -511 197
-848 363 -1183 94 -191 247 -430 389 -607 126 -158 373 -400 559 -549 274
-219 556 -397 923 -581 l193 -96 47 17 c89 32 447 210 582 289 996 580 1548
1336 1756 2405 38 198 92 633 114 920 14 184 23 899 13 1035 l-8 110 -30 1
c-25 1 -26 0 -4 -3 l26 -4 7 -287 c17 -732 -45 -1385 -173 -1824 -147 -501
-410 -950 -788 -1344 -71 -74 -52 -45 28 41 62 68 188 224 164 203 -17 -14
-23 -14 -37 -4 -10 7 -15 15 -12 19 3 3 -4 8 -15 12 -12 3 -19 11 -16 16 3 5
-1 6 -9 3 -9 -3 -16 -1 -16 5 0 6 -9 11 -20 11 -11 0 -20 4 -20 9 0 4 -89 -80
-197 -189 -207 -205 -374 -340 -623 -503 -191 -124 -491 -285 -722 -385 l-48
-21 0 -125 c0 -69 -4 -126 -8 -126 -4 0 -80 35 -167 79 -643 316 -1235 774
-1585 1226 -246 318 -461 732 -564 1089 -40 137 -30 125 20 -24 25 -74 50
-139 55 -145 6 -6 6 1 0 18 -14 36 -14 60 -1 52 6 -4 8 -9 6 -13 -2 -4 6 -7
19 -7 13 0 21 3 18 7 -2 5 7 4 21 -2 14 -5 26 -6 26 -2 0 4 17 8 37 7 33 0 40
-5 56 -35 10 -19 15 -26 12 -15 -4 11 -22 67 -41 125 -49 151 -41 147 16 -10
213 -579 452 -939 855 -1288 283 -246 657 -483 1018 -646 89 -40 172 -76 184
-80 31 -10 292 101 488 206 509 273 956 641 1229 1011 264 358 442 821 525
1367 54 358 71 609 71 1065 l0 341 -206 23 c-615 67 -1289 209 -1759 371 -129
45 -304 116 -319 131 -13 12 -15 11 -50 -7z m225 -228 c235 -81 372 -300 355
-568 l-6 -97 72 -21 c40 -12 98 -29 128 -39 l55 -18 3 -59 3 -59 -72 -19 c-90
-23 -244 -100 -329 -165 -73 -55 -213 -197 -278 -282 -63 -84 -137 -212 -173
-300 l-32 -78 -31 13 c-45 19 -351 150 -354 152 -1 0 5 32 14 70 20 85 14 281
-11 364 -39 129 -169 317 -249 359 -14 8 -26 18 -26 21 0 6 153 53 203 62 15
3 17 19 20 133 3 109 8 141 29 197 34 91 78 157 149 222 144 133 345 176 530
112z m-1531 -566 c132 -17 235 -47 355 -105 218 -106 358 -263 414 -465 55
-199 7 -389 -138 -543 l-65 -68 28 -87 c32 -96 92 -218 137 -274 16 -20 29
-39 29 -41 0 -8 -225 62 -312 97 -47 19 -119 51 -159 71 l-73 37 -90 -22
c-167 -41 -398 -37 -577 9 -431 113 -705 455 -635 790 67 317 359 548 760 601
91 11 231 11 326 0z m2307 -445 c156 -76 283 -191 389 -355 44 -68 189 -340
181 -340 -2 0 -27 38 -56 86 -122 198 -276 373 -409 463 -72 49 -172 98 -218
107 l-31 6 -6 -79 c-4 -43 -9 -123 -13 -178 l-6 -100 53 -37 c30 -21 72 -53
94 -72 l40 -35 -61 31 c-92 45 -158 44 -255 -4 -143 -71 -433 -314 -535 -449
-21 -27 -39 -47 -41 -45 -6 5 101 244 144 324 41 76 112 196 155 262 48 74
-112 -98 -198 -213 -154 -205 -232 -381 -269 -607 l-8 -45 144 140 c277 269
648 566 708 565 9 0 -2 -9 -24 -19 -57 -26 -298 -209 -450 -342 -189 -165
-379 -357 -406 -409 -67 -130 -2 -282 216 -509 l90 -94 -70 48 c-208 144 -350
283 -380 376 -19 57 -17 67 85 346 206 567 318 773 531 979 152 146 378 262
479 248 19 -3 76 -25 127 -49z m-114 -572 c-13 -2 -33 -2 -45 0 -13 2 -3 4 22
4 25 0 35 -2 23 -4z m-2986 -505 c-3 -8 -6 -5 -6 6 -1 11 2 17 5 13 3 -3 4
-12 1 -19z m-210 -10 c-3 -8 -6 -5 -6 6 -1 11 2 17 5 13 3 -3 4 -12 1 -19z
m2748 -129 c65 -13 244 -10 320 6 38 8 71 15 72 15 2 0 3 -47 3 -105 l0 -105
-45 0 c-71 0 -194 29 -260 60 -63 31 -139 88 -170 129 l-18 24 29 -8 c16 -4
47 -11 69 -16z m-736 -434 c56 -100 298 -334 444 -430 31 -21 57 -40 57 -42 0
-9 -155 80 -163 94 -5 7 -13 11 -18 7 -5 -3 -142 60 -305 140 -163 80 -300
146 -305 146 -29 0 6 22 124 77 73 35 133 63 134 63 0 0 15 -25 32 -55z m-142
-261 c217 -131 324 -212 483 -363 l95 -91 -125 82 c-226 150 -466 256 -648
288 -77 14 -126 6 -117 -18 3 -10 45 -84 92 -166 48 -82 86 -155 86 -163 0 -7
4 -13 8 -13 3 0 9 -8 12 -17 3 -10 17 -38 32 -63 14 -25 18 -34 8 -20 -171
233 -388 439 -453 428 -18 -3 -12 -15 50 -108 39 -58 80 -122 91 -144 l21 -38
-103 71 c-57 39 -108 71 -115 71 -19 0 -36 -27 -66 -108 -15 -42 -25 -61 -22
-42 3 19 16 60 28 91 18 45 20 60 11 82 -9 22 -13 25 -24 14 -15 -14 13 58 32
82 10 14 10 14 -4 3 -9 -7 -43 -72 -75 -145 -66 -149 -93 -205 -94 -195 0 13
120 291 145 334 39 67 90 103 270 191 93 45 171 83 172 83 0 0 95 -57 210
-126z m-680 -476 c-3 -8 -6 -5 -6 6 -1 11 2 17 5 13 3 -3 4 -12 1 -19z m-10
-40 c-3 -8 -6 -5 -6 6 -1 11 2 17 5 13 3 -3 4 -12 1 -19z m-120 -17 c0 -11 -5
-18 -9 -15 -4 3 -5 11 -1 19 7 21 12 19 10 -4z m2753 -214 c0 -2 -10 -12 -22
-23 l-23 -19 19 23 c18 21 26 27 26 19z"/>
<path d="M5019 7883 c-100 -33 -193 -131 -224 -236 -8 -28 -15 -84 -15 -124 0
-84 -11 -78 120 -63 161 19 465 10 554 -17 18 -5 19 0 14 91 -5 86 -9 105 -42
172 -29 58 -50 84 -93 118 -92 73 -208 95 -314 59z"/>
<path d="M5044 7282 c-95 -60 -111 -171 -37 -253 l36 -39 -16 -88 c-9 -48 -19
-100 -23 -117 l-6 -30 119 3 c65 2 119 5 121 7 2 1 -4 43 -12 91 -21 120 -20
147 5 170 28 25 49 75 49 116 0 40 -35 104 -72 131 -39 29 -124 34 -164 9z"/>
<path d="M4687 6715 c-4 -22 -14 -71 -21 -110 -8 -38 -13 -71 -12 -71 10 -10
360 -154 363 -150 5 5 69 147 80 176 3 8 -6 -1 -18 -20 -29 -43 -61 -50 -77
-18 -6 13 -11 17 -11 10 -1 -9 -6 -10 -20 -3 -10 6 -21 7 -25 4 -6 -7 -10 12
-6 37 1 12 -1 12 -11 3 -10 -10 -16 -9 -31 4 -17 15 -18 15 -18 -5 0 -12 -4
-22 -9 -22 -5 0 -7 9 -4 20 4 14 1 20 -8 18 -8 -2 -13 2 -12 9 2 7 -6 10 -17
8 -12 -2 -18 0 -15 4 2 5 -5 11 -18 15 -16 4 -18 8 -9 14 16 10 -34 48 -63 47
-15 0 -21 8 -26 35 l-5 35 -7 -40z"/>
<path d="M4905 6591 c-3 -5 0 -13 6 -17 7 -4 9 -3 5 4 -3 5 0 13 6 15 9 4 10
6 1 6 -6 1 -14 -3 -18 -8z"/>
<path d="M3470 7279 c0 -35 80 -641 86 -650 3 -5 42 -9 88 -9 l82 0 33 298
c18 163 35 316 38 340 l6 42 -167 0 c-162 0 -166 0 -166 -21z"/>
<path d="M3587 6535 c-91 -47 -100 -165 -20 -236 33 -29 41 -31 91 -27 46 4
60 10 83 36 99 111 -25 295 -154 227z"/>
<path d="M4735 5430 c3 -5 8 -10 11 -10 2 0 4 5 4 10 0 6 -5 10 -11 10 -5 0
-7 -4 -4 -10z"/>
<path d="M4700 5420 c-9 -6 -10 -10 -3 -10 6 0 15 5 18 10 8 12 4 12 -15 0z"/>
<path d="M4780 5360 c11 -16 26 -33 32 -36 7 -4 -1 9 -16 29 -34 44 -46 50
-16 7z"/>
<path d="M4900 5222 c64 -71 99 -125 68 -106 -5 3 -7 9 -4 12 7 7 -23 42 -36
42 -5 0 -6 -6 -3 -12 4 -7 -1 -4 -9 6 -15 18 -16 18 -16 2 0 -13 -5 -16 -22
-11 -13 3 2 -8 32 -24 35 -19 63 -28 78 -24 17 4 31 -4 58 -31 19 -20 40 -36
47 -36 6 0 3 8 -8 18 -11 10 -74 70 -139 133 -116 110 -118 111 -46 31z"/>
<path d="M4743 5214 c27 -14 51 -23 54 -21 5 5 -83 47 -96 47 -3 -1 16 -12 42
-26z"/>
<path d="M4191 4817 c2 -1 13 -9 24 -17 19 -14 19 -14 6 3 -7 9 -18 17 -24 17
-6 0 -8 -1 -6 -3z"/>
<path d="M4470 4743 c13 -18 25 -33 27 -33 8 0 -17 38 -33 51 -11 9 -9 2 6
-18z"/>
<path d="M5668 8303 c7 -3 16 -2 19 1 4 3 -2 6 -13 5 -11 0 -14 -3 -6 -6z"/>
<path d="M5918 8233 c7 -3 16 -2 19 1 4 3 -2 6 -13 5 -11 0 -14 -3 -6 -6z"/>
<path d="M5958 8223 c7 -3 16 -2 19 1 4 3 -2 6 -13 5 -11 0 -14 -3 -6 -6z"/>
<path d="M5998 8213 c7 -3 16 -2 19 1 4 3 -2 6 -13 5 -11 0 -14 -3 -6 -6z"/>
<path d="M6038 8203 c7 -3 16 -2 19 1 4 3 -2 6 -13 5 -11 0 -14 -3 -6 -6z"/>
<path d="M4118 8193 c7 -3 16 -2 19 1 4 3 -2 6 -13 5 -11 0 -14 -3 -6 -6z"/>
<path d="M6078 8193 c7 -3 16 -2 19 1 4 3 -2 6 -13 5 -11 0 -14 -3 -6 -6z"/>
<path d="M6118 8183 c7 -3 16 -2 19 1 4 3 -2 6 -13 5 -11 0 -14 -3 -6 -6z"/>
<path d="M6158 8173 c7 -3 16 -2 19 1 4 3 -2 6 -13 5 -11 0 -14 -3 -6 -6z"/>
<path d="M6198 8163 c7 -3 16 -2 19 1 4 3 -2 6 -13 5 -11 0 -14 -3 -6 -6z"/>
<path d="M6248 8153 c7 -3 16 -2 19 1 4 3 -2 6 -13 5 -11 0 -14 -3 -6 -6z"/>
<path d="M3888 8143 c7 -3 16 -2 19 1 4 3 -2 6 -13 5 -11 0 -14 -3 -6 -6z"/>
<path d="M6288 8143 c6 -2 18 -2 25 0 6 3 1 5 -13 5 -14 0 -19 -2 -12 -5z"/>
<path d="M6338 8133 c7 -3 16 -2 19 1 4 3 -2 6 -13 5 -11 0 -14 -3 -6 -6z"/>
<path d="M6390 8120 c14 -4 34 -8 45 -8 16 0 15 2 -5 8 -14 4 -34 8 -45 8 -16
0 -15 -2 5 -8z"/>
<path d="M3668 8103 c6 -2 18 -2 25 0 6 3 1 5 -13 5 -14 0 -19 -2 -12 -5z"/>
<path d="M6468 8103 c6 -2 18 -2 25 0 6 3 1 5 -13 5 -14 0 -19 -2 -12 -5z"/>
<path d="M3608 8093 c7 -3 16 -2 19 1 4 3 -2 6 -13 5 -11 0 -14 -3 -6 -6z"/>
<path d="M6528 8093 c6 -2 18 -2 25 0 6 3 1 5 -13 5 -14 0 -19 -2 -12 -5z"/>
<path d="M3548 8083 c6 -2 18 -2 25 0 6 3 1 5 -13 5 -14 0 -19 -2 -12 -5z"/>
<path d="M6578 8083 c7 -3 16 -2 19 1 4 3 -2 6 -13 5 -11 0 -14 -3 -6 -6z"/>
<path d="M3488 8073 c6 -2 18 -2 25 0 6 3 1 5 -13 5 -14 0 -19 -2 -12 -5z"/>
<path d="M6645 8070 c17 -4 41 -8 55 -8 22 0 22 1 -5 8 -16 4 -41 8 -55 8 -22
0 -22 -1 5 -8z"/>
<path d="M3423 8063 c9 -2 23 -2 30 0 6 3 -1 5 -18 5 -16 0 -22 -2 -12 -5z"/>
<path d="M3368 8053 c6 -2 18 -2 25 0 6 3 1 5 -13 5 -14 0 -19 -2 -12 -5z"/>
<path d="M6755 8050 c17 -4 41 -8 55 -8 22 0 22 1 -5 8 -16 4 -41 8 -55 8 -22
0 -22 -1 5 -8z"/>
<path d="M3298 8043 c6 -2 18 -2 25 0 6 3 1 5 -13 5 -14 0 -19 -2 -12 -5z"/>
<path d="M3233 8033 c9 -2 23 -2 30 0 6 3 -1 5 -18 5 -16 0 -22 -2 -12 -5z"/>
<path d="M6853 8033 c9 -2 23 -2 30 0 6 3 -1 5 -18 5 -16 0 -22 -2 -12 -5z"/>
<path d="M3158 8023 c6 -2 18 -2 25 0 6 3 1 5 -13 5 -14 0 -19 -2 -12 -5z"/>
<path d="M6935 8019 c22 -4 54 -8 70 -7 22 0 19 3 -15 9 -60 10 -108 9 -55 -2z"/>
<path d="M3083 8013 c9 -2 23 -2 30 0 6 3 -1 5 -18 5 -16 0 -22 -2 -12 -5z"/>
<path d="M3003 8003 c9 -2 23 -2 30 0 6 3 -1 5 -18 5 -16 0 -22 -2 -12 -5z"/>
<path d="M6728 8003 c6 -2 18 -2 25 0 6 3 1 5 -13 5 -14 0 -19 -2 -12 -5z"/>
<path d="M7053 8003 c9 -2 23 -2 30 0 6 3 -1 5 -18 5 -16 0 -22 -2 -12 -5z"/>
<path d="M2923 7993 c9 -2 23 -2 30 0 6 3 -1 5 -18 5 -16 0 -22 -2 -12 -5z"/>
<path d="M6775 7995 c9 -3 176 -31 303 -50 23 -4 42 -11 42 -17 0 -6 -9 -8
-20 -5 -17 4 -18 2 -9 -15 6 -11 9 -28 6 -39 -4 -15 2 -20 32 -25 57 -9 61
-15 6 -9 -27 3 -81 8 -120 10 -67 4 -66 4 25 -10 52 -9 157 -22 234 -30 76 -8
140 -16 142 -18 2 -2 4 -75 5 -164 0 -88 4 -165 8 -171 4 -7 7 26 8 72 0 102
6 121 32 107 10 -6 21 -7 25 -4 3 3 6 1 6 -5 0 -20 -21 -24 -34 -7 -9 13 -13
14 -12 4 0 -19 36 -54 36 -35 0 7 6 19 13 25 10 8 14 7 14 -4 0 -8 -3 -15 -7
-15 -3 0 -6 -8 -7 -18 -1 -10 5 -19 12 -19 8 0 12 4 9 9 -3 4 2 18 11 30 10
13 15 16 12 8 -6 -21 20 -70 38 -70 8 0 15 -5 15 -11 0 -5 -4 -8 -9 -5 -4 3
-6 -7 -3 -22 l6 -27 7 25 c4 14 7 104 8 200 0 132 -3 179 -13 193 -11 14 -42
20 -147 32 -173 18 -430 51 -544 70 -81 13 -156 19 -130 10z m676 -338 c-10
-9 -11 -8 -5 6 3 10 9 15 12 12 3 -3 0 -11 -7 -18z m84 -15 c-3 -3 -11 0 -18
7 -9 10 -8 11 6 5 10 -3 15 -9 12 -12z m53 -74 c16 -16 15 -25 -3 -25 -8 0
-11 5 -8 10 3 5 -1 13 -8 18 -8 5 -9 9 -3 9 5 0 15 -5 22 -12z"/>
<path d="M7140 7989 c25 -4 61 -7 80 -7 29 1 26 2 -15 8 -69 11 -126 10 -65
-1z"/>
<path d="M2833 7983 c9 -2 25 -2 35 0 9 3 1 5 -18 5 -19 0 -27 -2 -17 -5z"/>
<path d="M2753 7973 c9 -2 25 -2 35 0 9 3 1 5 -18 5 -19 0 -27 -2 -17 -5z"/>
<path d="M7305 7970 c52 -9 141 -13 134 -6 -2 2 -44 6 -94 9 -66 4 -77 3 -40
-3z"/>
<path d="M2625 7963 c-11 -3 -24 -9 -30 -15 -6 -6 -4 -7 6 -3 10 4 39 10 65
15 41 6 43 8 14 8 -19 0 -44 -2 -55 -5z"/>
<path d="M7473 7953 c15 -2 39 -2 55 0 15 2 2 4 -28 4 -30 0 -43 -2 -27 -4z"/>
<path d="M2585 7545 c0 -198 1 -280 2 -183 2 97 2 259 0 360 -1 101 -2 21 -2
-177z"/>
<path d="M6828 7863 c6 -2 18 -2 25 0 6 3 1 5 -13 5 -14 0 -19 -2 -12 -5z"/>
<path d="M6893 7853 c9 -2 25 -2 35 0 9 3 1 5 -18 5 -19 0 -27 -2 -17 -5z"/>
<path d="M7450 7579 c0 -5 5 -7 10 -4 6 3 10 8 10 11 0 2 -4 4 -10 4 -5 0 -10
-5 -10 -11z"/>
<path d="M7601 7434 c0 -11 3 -14 6 -6 3 7 2 16 -1 19 -3 4 -6 -2 -5 -13z"/>
<path d="M7865 7153 c30 -71 82 -228 110 -328 19 -66 34 -113 34 -104 1 19
-52 212 -80 292 -12 32 -18 61 -15 64 8 8 40 -48 111 -192 64 -128 81 -155 49
-79 -35 85 -109 223 -156 292 -50 71 -67 89 -53 55z m45 -68 c0 -5 -5 -3 -10
5 -5 8 -10 20 -10 25 0 6 5 3 10 -5 5 -8 10 -19 10 -25z"/>
<path d="M2358 7143 c-9 -10 -13 -24 -10 -32 2 -8 0 -11 -6 -7 -20 12 -168
-244 -186 -324 -3 -14 2 -7 11 15 26 63 102 205 138 258 23 34 34 44 37 32 2
-9 10 3 19 29 9 25 16 46 14 46 -1 0 -9 -8 -17 -17z"/>
<path d="M2593 7090 c0 -36 2 -50 4 -32 2 17 2 47 0 65 -2 17 -4 3 -4 -33z"/>
<path d="M2311 7006 c-11 -30 -23 -68 -26 -83 -3 -15 8 8 24 52 16 44 28 81
26 83 -2 2 -12 -21 -24 -52z"/>
<path d="M2257 6830 c-10 -33 -17 -68 -16 -77 0 -10 9 15 20 56 11 40 18 75
16 77 -2 2 -11 -23 -20 -56z"/>
<path d="M2476 6864 c-4 -9 -4 -19 -1 -22 2 -3 7 3 11 12 4 9 4 19 1 22 -2 3
-7 -3 -11 -12z"/>
<path d="M7745 6860 c2 -14 5 -34 5 -45 0 -15 2 -17 9 -7 8 14 51 -77 89 -186
8 -24 16 -41 18 -39 2 2 -5 30 -16 63 -24 70 -112 250 -105 214z"/>
<path d="M2426 6756 c-42 -87 -83 -223 -91 -298 -4 -41 -1 -33 14 32 22 98 74
250 102 299 11 18 18 36 15 38 -2 3 -20 -29 -40 -71z"/>
<path d="M2451 6709 c-7 -47 -11 -99 -8 -115 3 -23 4 -21 6 12 0 22 6 66 12
98 5 31 9 65 6 74 -2 9 -9 -22 -16 -69z"/>
<path d="M7762 6770 c0 -14 2 -19 5 -12 2 6 2 18 0 25 -3 6 -5 1 -5 -13z"/>
<path d="M2126 6699 c-8 -29 -13 -55 -11 -57 2 -2 11 20 19 49 9 29 14 54 12
56 -2 3 -11 -19 -20 -48z"/>
<path d="M7772 6720 c0 -14 3 -45 7 -70 6 -34 9 -37 9 -15 1 17 -3 48 -7 70
-6 25 -9 31 -9 15z"/>
<path d="M2232 6710 c0 -14 2 -19 5 -12 2 6 2 18 0 25 -3 6 -5 1 -5 -13z"/>
<path d="M8101 6715 c1 -19 18 -51 18 -35 0 8 -4 22 -9 30 -5 8 -9 11 -9 5z"/>
<path d="M8012 6685 c0 -11 4 -33 8 -50 7 -27 8 -27 8 -5 0 14 -4 36 -8 50 -6
20 -8 21 -8 5z"/>
<path d="M2222 6655 c0 -16 2 -22 5 -12 2 9 2 23 0 30 -3 6 -5 -1 -5 -18z"/>
<path d="M8121 6655 c1 -19 18 -51 18 -35 0 8 -4 22 -9 30 -5 8 -9 11 -9 5z"/>
<path d="M2101 6614 c0 -11 3 -14 6 -6 3 7 2 16 -1 19 -3 4 -6 -2 -5 -13z"/>
<path d="M2212 6595 c0 -16 2 -22 5 -12 2 9 2 23 0 30 -3 6 -5 -1 -5 -18z"/>
<path d="M7793 6565 c0 -22 2 -30 4 -17 2 12 2 30 0 40 -3 9 -5 -1 -4 -23z"/>
<path d="M8032 6580 c0 -14 2 -19 5 -12 2 6 2 18 0 25 -3 6 -5 1 -5 -13z"/>
<path d="M8141 6584 c0 -11 3 -14 6 -6 3 7 2 16 -1 19 -3 4 -6 -2 -5 -13z"/>
<path d="M2085 6550 c-4 -23 -5 -43 -2 -46 2 -3 7 14 11 37 4 23 5 44 2 46 -2
2 -7 -14 -11 -37z"/>
<path d="M7871 6554 c0 -11 3 -14 6 -6 3 7 2 16 -1 19 -3 4 -6 -2 -5 -13z"/>
<path d="M8152 6540 c0 -14 2 -19 5 -12 2 6 2 18 0 25 -3 6 -5 1 -5 -13z"/>
<path d="M2202 6520 c0 -19 2 -27 5 -17 2 9 2 25 0 35 -3 9 -5 1 -5 -18z"/>
<path d="M8042 6510 c0 -19 2 -27 5 -17 2 9 2 25 0 35 -3 9 -5 1 -5 -18z"/>
<path d="M7881 6514 c0 -11 3 -14 6 -6 3 7 2 16 -1 19 -3 4 -6 -2 -5 -13z"/>
<path d="M2434 6360 c0 -91 2 -128 3 -82 2 45 2 119 0 165 -1 45 -3 8 -3 -83z"/>
<path d="M8162 6490 c0 -14 4 -38 8 -55 7 -27 8 -27 8 -5 0 14 -4 39 -8 55 -7
27 -8 27 -8 5z"/>
<path d="M7804 6340 c0 -91 2 -128 3 -82 2 45 2 119 0 165 -1 45 -3 8 -3 -83z"/>
<path d="M2072 6470 c0 -14 2 -19 5 -12 2 6 2 18 0 25 -3 6 -5 1 -5 -13z"/>
<path d="M7892 6470 c0 -14 2 -19 5 -12 2 6 2 18 0 25 -3 6 -5 1 -5 -13z"/>
<path d="M2193 6415 c0 -27 2 -38 4 -22 2 15 2 37 0 50 -2 12 -4 0 -4 -28z"/>
<path d="M8053 6425 c0 -22 2 -30 4 -17 2 12 2 30 0 40 -3 9 -5 -1 -4 -23z"/>
<path d="M2062 6400 c0 -19 2 -27 5 -17 2 9 2 25 0 35 -3 9 -5 1 -5 -18z"/>
<path d="M7903 6395 c0 -22 2 -30 4 -17 2 12 2 30 0 40 -3 9 -5 -1 -4 -23z"/>
<path d="M2323 6350 c0 -30 2 -43 4 -27 2 15 2 39 0 55 -2 15 -4 2 -4 -28z"/>
<path d="M8183 6365 c0 -22 2 -30 4 -17 2 12 2 30 0 40 -3 9 -5 -1 -4 -23z"/>
<path d="M7913 6300 c0 -30 2 -43 4 -27 2 15 2 39 0 55 -2 15 -4 2 -4 -28z"/>
<path d="M8064 6225 c0 -71 1 -99 3 -62 2 37 2 96 0 130 -2 34 -3 4 -3 -68z"/>
<path d="M2054 6170 c0 -96 2 -136 3 -87 2 48 2 126 0 175 -1 48 -3 8 -3 -88z"/>
<path d="M2184 6220 c0 -58 1 -81 3 -52 2 28 2 76 0 105 -2 28 -3 5 -3 -53z"/>
<path d="M8193 6255 c0 -38 2 -53 4 -32 2 20 2 52 0 70 -2 17 -4 1 -4 -38z"/>
<path d="M2311 6219 c1 -35 5 -89 9 -119 5 -37 6 -16 3 60 -6 125 -14 163 -12
59z"/>
<path d="M7912 6220 c0 -14 2 -19 5 -12 2 6 2 18 0 25 -3 6 -5 1 -5 -13z"/>
<path d="M2443 6130 c0 -25 2 -35 4 -22 2 12 2 32 0 45 -2 12 -4 2 -4 -23z"/>
<path d="M7793 6110 c0 -25 2 -35 4 -22 2 12 2 32 0 45 -2 12 -4 2 -4 -23z"/>
<path d="M7913 6070 c0 -25 2 -35 4 -22 2 12 2 32 0 45 -2 12 -4 2 -4 -23z"/>
<path d="M2452 6055 c0 -16 2 -22 5 -12 2 9 2 23 0 30 -3 6 -5 -1 -5 -18z"/>
<path d="M8193 6025 c0 -33 2 -45 4 -27 2 18 2 45 0 60 -2 15 -4 0 -4 -33z"/>
<path d="M2192 6035 c0 -16 2 -22 5 -12 2 9 2 23 0 30 -3 6 -5 -1 -5 -18z"/>
<path d="M8053 6025 c0 -22 2 -30 4 -17 2 12 2 30 0 40 -3 9 -5 -1 -4 -23z"/>
<path d="M7782 6020 c0 -14 2 -19 5 -12 2 6 2 18 0 25 -3 6 -5 1 -5 -13z"/>
<path d="M2332 6000 c0 -19 2 -27 5 -17 2 9 2 25 0 35 -3 9 -5 1 -5 -18z"/>
<path d="M2462 5995 c0 -16 2 -22 5 -12 2 9 2 23 0 30 -3 6 -5 -1 -5 -18z"/>
<path d="M7902 5985 c0 -16 2 -22 5 -12 2 9 2 23 0 30 -3 6 -5 -1 -5 -18z"/>
<path d="M2202 5955 c0 -16 2 -22 5 -12 2 9 2 23 0 30 -3 6 -5 -1 -5 -18z"/>
<path d="M7772 5960 c0 -14 2 -19 5 -12 2 6 2 18 0 25 -3 6 -5 1 -5 -13z"/>
<path d="M2062 5940 c0 -19 2 -27 5 -17 2 9 2 25 0 35 -3 9 -5 1 -5 -18z"/>
<path d="M2342 5940 c0 -14 2 -19 5 -12 2 6 2 18 0 25 -3 6 -5 1 -5 -13z"/>
<path d="M2471 5945 c0 -11 6 -42 13 -70 18 -65 19 -37 1 35 -7 30 -14 46 -14
35z"/>
<path d="M8042 5930 c0 -19 2 -27 5 -17 2 9 2 25 0 35 -3 9 -5 1 -5 -18z"/>
<path d="M8182 5920 c0 -19 2 -27 5 -17 2 9 2 25 0 35 -3 9 -5 1 -5 -18z"/>
<path d="M7892 5920 c0 -14 2 -19 5 -12 2 6 2 18 0 25 -3 6 -5 1 -5 -13z"/>
<path d="M7761 5904 c0 -11 3 -14 6 -6 3 7 2 16 -1 19 -3 4 -6 -2 -5 -13z"/>
<path d="M2212 5890 c0 -14 2 -19 5 -12 2 6 2 18 0 25 -3 6 -5 1 -5 -13z"/>
<path d="M2352 5895 c0 -11 3 -29 8 -40 11 -25 11 1 0 35 -6 20 -8 21 -8 5z"/>
<path d="M2072 5870 c0 -14 2 -19 5 -12 2 6 2 18 0 25 -3 6 -5 1 -5 -13z"/>
<path d="M7751 5864 c0 -11 3 -14 6 -6 3 7 2 16 -1 19 -3 4 -6 -2 -5 -13z"/>
<path d="M8032 5860 c0 -14 2 -19 5 -12 2 6 2 18 0 25 -3 6 -5 1 -5 -13z"/>
<path d="M8172 5860 c0 -14 2 -19 5 -12 2 6 2 18 0 25 -3 6 -5 1 -5 -13z"/>
<path d="M2221 5834 c0 -11 3 -14 6 -6 3 7 2 16 -1 19 -3 4 -6 -2 -5 -13z"/>
<path d="M7741 5824 c0 -11 3 -14 6 -6 3 7 2 16 -1 19 -3 4 -6 -2 -5 -13z"/>
<path d="M2375 5807 c7 -36 46 -139 50 -135 2 2 -10 39 -26 83 -16 44 -27 67
-24 52z"/>
<path d="M8021 5814 c0 -11 3 -14 6 -6 3 7 2 16 -1 19 -3 4 -6 -2 -5 -13z"/>
<path d="M2501 5816 c-2 -14 40 -148 44 -144 3 2 -6 38 -19 79 -13 40 -24 70
-25 65z"/>
<path d="M8162 5800 c0 -14 2 -19 5 -12 2 6 2 18 0 25 -3 6 -5 1 -5 -13z"/>
<path d="M7856 5784 c-4 -14 -5 -28 -3 -31 3 -2 8 8 11 23 4 14 5 28 3 31 -3
2 -8 -8 -11 -23z"/>
<path d="M2231 5784 c0 -11 3 -14 6 -6 3 7 2 16 -1 19 -3 4 -6 -2 -5 -13z"/>
<path d="M7726 5774 c-4 -14 -5 -28 -3 -31 3 -2 8 8 11 23 4 14 5 28 3 31 -3
2 -8 -8 -11 -23z"/>
<path d="M2091 5764 c0 -11 3 -14 6 -6 3 7 2 16 -1 19 -3 4 -6 -2 -5 -13z"/>
<path d="M8011 5764 c0 -11 3 -14 6 -6 3 7 2 16 -1 19 -3 4 -6 -2 -5 -13z"/>
<path d="M8152 5750 c0 -14 2 -19 5 -12 2 6 2 18 0 25 -3 6 -5 1 -5 -13z"/>
<path d="M2241 5744 c0 -11 3 -14 6 -6 3 7 2 16 -1 19 -3 4 -6 -2 -5 -13z"/>
<path d="M7836 5725 c-9 -26 -7 -32 5 -12 6 10 9 21 6 23 -2 3 -7 -2 -11 -11z"/>
<path d="M8001 5724 c0 -11 3 -14 6 -6 3 7 2 16 -1 19 -3 4 -6 -2 -5 -13z"/>
<path d="M7991 5684 c0 -11 3 -14 6 -6 3 7 2 16 -1 19 -3 4 -6 -2 -5 -13z"/>
<path d="M8131 5674 c0 -11 3 -14 6 -6 3 7 2 16 -1 19 -3 4 -6 -2 -5 -13z"/>
<path d="M2262 5670 c0 -8 6 -31 13 -50 7 -19 13 -28 13 -20 0 8 -6 31 -13 50
-7 19 -13 28 -13 20z"/>
<path d="M2430 5656 c0 -19 84 -163 141 -241 52 -73 219 -249 219 -232 0 3
-16 31 -35 62 -20 30 -51 86 -71 125 -19 38 -37 70 -39 70 -6 0 23 -63 63
-133 39 -71 40 -78 6 -46 -60 56 -180 215 -230 306 -30 54 -54 94 -54 89z"/>
<path d="M2550 5657 c0 -13 42 -118 46 -115 2 2 -6 29 -17 59 -20 52 -29 70
-29 56z"/>
<path d="M7765 5562 c-67 -129 -232 -331 -257 -316 -6 4 -8 3 -5 -3 4 -6 0
-13 -7 -16 -8 -3 -20 -16 -27 -29 -12 -23 -12 -23 17 2 57 49 138 136 193 210
53 70 137 217 129 225 -2 2 -21 -31 -43 -73z"/>
<path d="M2130 5625 c0 -5 5 -17 10 -25 5 -8 10 -10 10 -5 0 6 -5 17 -10 25
-5 8 -10 11 -10 5z"/>
<path d="M7657 5568 c-9 -23 -15 -43 -13 -45 2 -2 11 15 20 38 9 23 15 43 13
45 -2 2 -11 -15 -20 -38z"/>
<path d="M2306 5530 c3 -14 11 -32 16 -40 6 -10 7 -7 2 10 -3 14 -11 32 -16
40 -6 10 -7 7 -2 -10z"/>
<path d="M7922 5483 c-12 -31 -20 -59 -18 -61 2 -2 14 22 25 54 12 31 20 58
18 61 -2 2 -14 -22 -25 -54z"/>
<path d="M2601 5525 c0 -5 8 -26 19 -45 11 -19 19 -30 19 -25 0 6 -8 26 -19
45 -11 19 -19 31 -19 25z"/>
<path d="M7622 5485 c-17 -37 -14 -45 4 -12 9 16 14 31 11 33 -2 2 -9 -7 -15
-21z"/>
<path d="M8027 5415 c-26 -52 -45 -95 -42 -95 7 0 97 181 93 186 -2 2 -25 -39
-51 -91z"/>
<path d="M2180 5497 c-1 -36 174 -322 223 -363 l22 -19 -21 25 c-51 61 -123
172 -171 265 -29 55 -52 97 -53 92z"/>
<path d="M2330 5465 c0 -5 5 -17 10 -25 5 -8 10 -10 10 -5 0 6 -5 17 -10 25
-5 8 -10 11 -10 5z"/>
<path d="M7557 5348 c-26 -51 -40 -84 -31 -73 25 32 90 165 81 165 -2 0 -24
-42 -50 -92z"/>
<path d="M7882 5385 c-17 -37 -14 -45 4 -12 9 16 14 31 11 33 -2 2 -9 -7 -15
-21z"/>
<path d="M2361 5395 c0 -5 8 -26 19 -45 11 -19 19 -30 19 -25 0 6 -8 26 -19
45 -11 19 -19 31 -19 25z"/>
<path d="M7936 5253 c-20 -32 -27 -46 -14 -31 26 30 62 88 55 88 -2 0 -21 -26
-41 -57z"/>
<path d="M2410 5281 c0 -6 4 -13 10 -16 6 -3 7 1 4 9 -7 18 -14 21 -14 7z"/>
<path d="M7807 5229 c-16 -27 -26 -49 -24 -49 7 0 59 91 55 95 -2 2 -16 -18
-31 -46z"/>
<path d="M2450 5210 c11 -22 23 -40 25 -40 3 0 -4 18 -15 40 -11 22 -23 40
-25 40 -3 0 4 -18 15 -40z"/>
<path d="M7870 5163 c-11 -16 -60 -68 -108 -117 -70 -72 -76 -80 -31 -43 30
25 75 70 99 99 24 29 50 61 58 71 8 9 12 17 9 17 -3 0 -15 -12 -27 -27z"/>
<path d="M7726 5093 c-25 -43 -67 -107 -93 -143 l-48 -65 43 33 c23 19 42 36
42 39 0 3 -7 0 -15 -7 -26 -21 -17 -1 24 53 39 53 107 167 98 167 -2 0 -25
-35 -51 -77z"/>
<path d="M2507 5110 c15 -28 36 -60 47 -73 l18 -22 -14 25 c-8 14 -27 46 -42
73 -15 26 -30 47 -33 47 -2 0 8 -23 24 -50z"/>
<path d="M2505 5025 c49 -48 102 -96 117 -107 l28 -19 -32 51 c-17 28 -36 54
-42 58 -6 3 -3 -6 7 -22 10 -15 17 -30 14 -32 -2 -2 -44 32 -93 77 l-89 81 90
-87z"/>
<path d="M6549 4673 c-13 -16 -12 -17 4 -4 9 7 17 15 17 17 0 8 -8 3 -21 -13z"/>
<path d="M6454 4578 l-19 -23 23 19 c12 11 22 21 22 23 0 8 -8 2 -26 -19z"/>
<path d="M6409 4543 c-13 -16 -12 -17 4 -4 9 7 17 15 17 17 0 8 -8 3 -21 -13z"/>
<path d="M4660 3926 c0 -3 14 -12 30 -21 17 -9 30 -13 30 -11 0 3 -13 12 -30
21 -16 9 -30 13 -30 11z"/>
<path d="M4745 3874 c32 -24 355 -185 354 -177 0 4 -85 49 -187 100 -103 51
-178 85 -167 77z"/>
</g>
</svg>
